<svg width="245" height="153" viewBox="0 0 245 153" fill="none" xmlns="http://www.w3.org/2000/svg">
<path d="M237.081 105.325H7.7087C5.66494 105.322 3.70556 104.51 2.2604 103.064C0.815237 101.619 0.00231411 99.6598 -4.57764e-05 97.6161V7.70871C0.00231411 5.66495 0.815237 3.70557 2.2604 2.26041C3.70556 0.815253 5.66494 0.00232937 7.7087 -3.05176e-05H237.081C239.125 0.00232937 241.084 0.815253 242.53 2.26041C243.975 3.70557 244.788 5.66495 244.79 7.70871V97.6161C244.788 99.6599 243.975 101.619 242.53 103.064C241.084 104.51 239.125 105.322 237.081 105.325Z" fill="#F2F2F2"/>
<path d="M183.587 100.408H44.1181C33.7251 100.397 23.7612 96.2628 16.4122 88.9139C9.06324 81.5649 4.92945 71.6009 4.91772 61.2079V44.1212C4.92944 33.7281 9.06322 23.7641 16.4122 16.4151C23.7611 9.06613 33.7251 4.93228 44.1181 4.92049H200.673C211.066 4.93228 221.03 9.06613 228.379 16.4151C235.728 23.7641 239.862 33.7281 239.874 44.1212C239.857 59.0443 233.921 73.3513 223.369 83.9036C212.817 94.4558 198.51 100.391 183.587 100.408Z" fill="white"/>
<path d="M147.609 30.658H55.419C54.8917 30.658 54.3861 30.4485 54.0132 30.0757C53.6404 29.7029 53.4309 29.1972 53.4309 28.6699C53.4309 28.1426 53.6404 27.637 54.0132 27.2641C54.3861 26.8913 54.8917 26.6818 55.419 26.6818H147.609C148.137 26.6818 148.642 26.8913 149.015 27.2641C149.388 27.637 149.597 28.1426 149.597 28.6699C149.597 29.1972 149.388 29.7029 149.015 30.0757C148.642 30.4485 148.137 30.658 147.609 30.658Z" fill="#E6E6E6"/>
<path d="M194.278 51.8696H55.419C54.8917 51.8696 54.3861 51.6601 54.0132 51.2873C53.6404 50.9144 53.4309 50.4088 53.4309 49.8815C53.4309 49.3542 53.6404 48.8485 54.0132 48.4757C54.3861 48.1029 54.8917 47.8934 55.419 47.8934H194.278C194.805 47.8934 195.311 48.1029 195.684 48.4757C196.056 48.8485 196.266 49.3542 196.266 49.8815C196.266 50.4088 196.056 50.9144 195.684 51.2873C195.311 51.6601 194.805 51.8696 194.278 51.8696Z" fill="#E6E6E6"/>
<path d="M194.278 73.0812H55.419C54.8917 73.0812 54.3861 72.8717 54.0132 72.4989C53.6404 72.126 53.4309 71.6204 53.4309 71.0931C53.4309 70.5658 53.6404 70.0601 54.0132 69.6873C54.3861 69.3145 54.8917 69.105 55.419 69.105H194.278C194.805 69.105 195.311 69.3145 195.684 69.6873C196.056 70.0601 196.266 70.5658 196.266 71.0931C196.266 71.6204 196.056 72.126 195.684 72.4989C195.311 72.8717 194.805 73.0812 194.278 73.0812Z" fill="#E6E6E6"/>
<path d="M194.278 73.0812H55.419C54.8917 73.0812 54.3861 72.8717 54.0132 72.4989C53.6404 72.126 53.4309 71.6204 53.4309 71.0931C53.4309 70.5658 53.6404 70.0601 54.0132 69.6873C54.3861 69.3145 54.8917 69.105 55.419 69.105H194.278C194.805 69.105 195.311 69.3145 195.684 69.6873C196.056 70.0601 196.266 70.5658 196.266 71.0931C196.266 71.6204 196.056 72.126 195.684 72.4989C195.311 72.8717 194.805 73.0812 194.278 73.0812Z" fill="#E6E6E6"/>
<path d="M137.881 54.3041C137.903 54.903 138.056 55.4897 138.33 56.023C138.603 56.5562 138.99 57.0231 139.463 57.3906C139.937 57.7581 140.485 58.0174 141.069 58.1502C141.653 58.2829 142.26 58.2859 142.845 58.159L150.427 70.597L153.654 63.7496L145.96 52.9881C145.681 52.0183 145.057 51.1844 144.204 50.6444C143.352 50.1043 142.331 49.8956 141.336 50.0579C140.34 50.2201 139.438 50.7419 138.801 51.5246C138.165 52.3072 137.837 53.2962 137.881 54.3041Z" fill="#FFB6B6"/>
<path d="M194.777 89.9506L168.649 75.7781L160.408 68.046C160.408 68.046 156.825 67.0867 158.144 65.9218C159.462 64.7568 155.704 63.6333 155.704 63.6333L151.28 59.4825L144.993 63.9307L146.813 66.7511C146.813 66.7511 146.688 71.4201 149.245 70.5218C151.803 69.6236 151.164 73.4959 151.164 73.4959L166.431 97.1613L194.777 89.9506Z" fill="#3F3D56"/>
<path d="M117.649 76.5979C131.744 76.5979 143.171 65.1717 143.171 51.0768C143.171 36.9819 131.744 25.5557 117.649 25.5557C103.554 25.5557 92.1283 36.9819 92.1283 51.0768C92.1283 65.1717 103.554 76.5979 117.649 76.5979Z" fill="#00838f"/>
<path d="M189.228 121.044H162.444V151.536H189.228V121.044Z" fill="#FFB6B6"/>
<path d="M189.64 121.044L192.524 112.391L194.584 109.506L195.408 101.265C195.408 79.0145 190.445 82.7197 190.445 82.7197L187.579 74.8939L174.394 74.4819L165.947 82.5169L158.942 84.9892L156.199 99.2423L161.208 114.451L162.444 122.692C160.086 127.045 160.286 124.986 162.238 128.255L185.519 134.642C193.76 137.526 193.76 130.109 192.108 128.255C190.455 126.401 189.64 121.044 189.64 121.044Z" fill="#3F3D56"/>
<path d="M179.283 71.7158C186.034 71.7158 191.507 66.2431 191.507 59.4922C191.507 52.7413 186.034 47.2686 179.283 47.2686C172.532 47.2686 167.06 52.7413 167.06 59.4922C167.06 66.2431 172.532 71.7158 179.283 71.7158Z" fill="#FFB6B6"/>
<path d="M195.602 75.8087C195.717 76.003 195.787 76.2208 195.806 76.4459C195.826 76.6709 195.794 76.8974 195.714 77.1085C195.633 77.3196 195.506 77.5099 195.342 77.6651C195.178 77.8203 194.981 77.9364 194.766 78.0049C193.126 78.5488 192.116 80.1352 190.938 81.4044C189.763 82.6694 187.872 83.7201 186.372 82.8589C184.876 82.0018 184.773 79.8138 183.521 78.6271C182.301 77.4734 180.274 77.6135 178.84 78.4911L178.797 78.5175C178.549 78.6789 178.26 78.7642 177.965 78.7628C177.669 78.7615 177.381 78.6736 177.134 78.51C176.888 78.3463 176.696 78.1142 176.58 77.8422C176.465 77.5703 176.431 77.2704 176.485 76.9797C176.987 74.3077 177.489 71.6359 177.991 68.9645C176.672 72.1416 174.757 75.0368 172.35 77.494C171.687 78.2592 170.847 78.8506 169.902 79.2164C169.045 79.4883 168.213 78.6024 167.381 78.7631C169.449 76.9542 176.405 65.359 175.16 57.6083C173.697 57.7731 172.235 57.9379 170.772 58.1027C170.614 57.4105 170.275 56.7723 169.791 56.2526C169.85 56.9264 169.765 57.605 169.54 58.2428C168.93 58.3129 168.316 58.3788 167.706 58.4489C166.857 58.5437 165.934 58.626 165.205 58.181C163.989 57.4394 163.952 55.684 164.298 54.2995C165.312 50.2737 168.386 46.9073 172.148 45.1437C175.91 43.3842 177.023 47.3028 180.987 46.0502C188.816 43.5779 194.815 47.8056 196.929 55.6511C198.705 62.2315 197.415 69.2158 195.602 75.8087Z" fill="#2F2E41"/>
<path d="M228.068 152.372L85.8369 152.511C85.6949 152.51 85.559 152.453 85.4589 152.352C85.3588 152.252 85.3026 152.116 85.3026 151.974C85.3026 151.832 85.3588 151.695 85.4589 151.595C85.559 151.494 85.6949 151.437 85.8369 151.437L228.068 151.298C228.21 151.299 228.346 151.356 228.446 151.456C228.546 151.557 228.602 151.693 228.602 151.835C228.602 151.977 228.546 152.113 228.446 152.214C228.346 152.314 228.21 152.371 228.068 152.372Z" fill="#CACACA"/>
<path d="M115.33 85.4264L99.6847 72.2145C99.1499 71.7618 98.8166 71.1156 98.7577 70.4175C98.6989 69.7194 98.9193 69.0264 99.3708 68.4906L102.25 65.0809C102.703 64.5462 103.349 64.2128 104.047 64.1539C104.745 64.0951 105.438 64.3155 105.974 64.767L121.619 77.9789C122.154 78.4315 122.487 79.0778 122.546 79.7759C122.605 80.474 122.384 81.167 121.933 81.7028L119.053 85.1125C118.601 85.6472 117.954 85.9806 117.256 86.0395C116.558 86.0983 115.865 85.8778 115.33 85.4264Z" fill="#3F3D56"/>
<path d="M100.506 68.7655C100.262 69.0542 100.144 69.4277 100.175 69.8039C100.207 70.1801 100.387 70.5283 100.675 70.7722L116.32 83.9842C116.608 84.2274 116.982 84.3462 117.358 84.3145C117.734 84.2828 118.082 84.1032 118.326 83.815L121.206 80.4053C121.449 80.1166 121.568 79.7432 121.536 79.367C121.504 78.9908 121.325 78.6425 121.037 78.3986L105.392 65.1867C105.103 64.9434 104.73 64.8246 104.353 64.8563C103.977 64.8881 103.629 65.0677 103.385 65.3559L100.506 68.7655Z" fill="white"/>
<path d="M109.69 73.9016C109.636 73.9776 109.565 74.0398 109.482 74.0835C109.399 74.1271 109.308 74.151 109.215 74.1531L106.756 74.2096C106.677 74.2114 106.599 74.1976 106.525 74.1691C106.452 74.1405 106.384 74.0977 106.327 74.0432C106.27 73.9886 106.224 73.9234 106.192 73.8511C106.16 73.7788 106.143 73.701 106.141 73.622C106.139 73.543 106.153 73.4645 106.182 73.3908C106.21 73.3172 106.253 73.2499 106.308 73.1928C106.362 73.1356 106.428 73.0898 106.5 73.0579C106.572 73.026 106.65 73.0087 106.729 73.0069L108.337 72.9699L106.753 68.7911C106.697 68.642 106.702 68.4767 106.768 68.3316C106.834 68.1864 106.954 68.0732 107.103 68.0168C107.252 67.9603 107.417 67.9653 107.563 68.0305C107.708 68.0957 107.821 68.2159 107.878 68.3647L109.763 73.3386C109.797 73.4286 109.809 73.5254 109.798 73.621C109.787 73.7165 109.753 73.8081 109.7 73.8879L109.69 73.9016Z" fill="#00838f"/>
<path d="M110.005 74.9518C110.598 75.0388 111.165 75.2549 111.665 75.5846C112.166 75.9143 112.588 76.3498 112.902 76.8603C113.215 77.3707 113.414 77.9438 113.482 78.5392C113.55 79.1345 113.487 79.7376 113.298 80.306L124.837 89.1952L117.68 91.6584L107.819 82.8394C106.885 82.4571 106.124 81.7457 105.68 80.8398C105.236 79.9339 105.139 78.8966 105.409 77.9243C105.678 76.9521 106.295 76.1125 107.142 75.5646C107.989 75.0168 109.008 74.7987 110.005 74.9518Z" fill="#FFB6B6"/>
<path d="M170.084 79.347L140.539 97.5129C140.539 97.5129 128.626 93.1053 130.954 91.0648C133.282 89.0244 125.871 87.6449 125.871 87.6449L117.684 82.1367L112.933 87.6581C112.933 87.6581 113.798 96.6267 115.271 95.0737C116.744 93.5208 118.946 97.763 118.946 97.763C118.946 97.763 119.596 102.5 123.789 101.308C127.982 100.116 139.233 112.61 139.233 112.61L175.595 99.0488L170.084 79.347Z" fill="#3F3D56"/>
<path d="M116.752 61.3144C116.409 61.3144 116.072 61.2346 115.765 61.0814C115.459 60.9282 115.193 60.7057 114.987 60.4317L109.576 53.2166C109.402 52.9848 109.276 52.721 109.204 52.4403C109.132 52.1597 109.116 51.8676 109.157 51.5808C109.198 51.2939 109.295 51.018 109.442 50.7687C109.59 50.5194 109.785 50.3016 110.017 50.1278C110.485 49.7767 111.074 49.6259 111.653 49.7087C111.94 49.7497 112.216 49.8468 112.465 49.9944C112.714 50.142 112.932 50.3373 113.106 50.5691L116.646 55.289L125.739 41.6503C126.063 41.1635 126.568 40.8255 127.142 40.7107C127.716 40.5959 128.312 40.7138 128.799 41.0384C129.285 41.363 129.623 41.8677 129.738 42.4415C129.853 43.0153 129.735 43.6112 129.41 44.0981L118.588 60.3318C118.392 60.6254 118.129 60.8678 117.82 61.0387C117.511 61.2095 117.166 61.3038 116.813 61.3137C116.793 61.314 116.772 61.3144 116.752 61.3144Z" fill="white"/>
</svg>
